<?xml version="1.0" encoding="UTF-8" standalone="no"?>
<!DOCTYPE svg PUBLIC "-//W3C//DTD SVG 1.1//EN"
 "http://www.w3.org/Graphics/SVG/1.1/DTD/svg11.dtd">
<!-- Generated by graphviz version 2.40.1 (20161225.0304)
 -->
<!-- Title: Metadata Pages: 1 -->
<svg width="159pt" height="123pt"
 viewBox="0.00 0.00 159.00 123.00" xmlns="http://www.w3.org/2000/svg" xmlns:xlink="http://www.w3.org/1999/xlink">
<g id="graph0" class="graph" transform="scale(1 1) rotate(0) translate(4 119)">
<title>Metadata</title>
<polygon fill="#ffffff" stroke="transparent" points="-4,4 -4,-119 155,-119 155,4 -4,4"/>
<!-- users -->
<g id="node1" class="node">
<title>users</title>
<path fill="#ffec8b" stroke="#000000" d="M12,-.5C12,-.5 139,-.5 139,-.5 145,-.5 151,-6.5 151,-12.5 151,-12.5 151,-102.5 151,-102.5 151,-108.5 145,-114.5 139,-114.5 139,-114.5 12,-114.5 12,-114.5 6,-114.5 0,-108.5 0,-102.5 0,-102.5 0,-12.5 0,-12.5 0,-6.5 6,-.5 12,-.5"/>
<text text-anchor="middle" x="75.5" y="-99.3" font-family="Times,serif" font-size="14.00" fill="#000000">users</text>
<polyline fill="none" stroke="#000000" points="0,-91.5 151,-91.5 "/>
<text text-anchor="start" x="8" y="-76.3" font-family="Times,serif" font-size="14.00" fill="#000000">user_id : id &#45; integer</text>
<text text-anchor="start" x="8" y="-61.3" font-family="Times,serif" font-size="14.00" fill="#000000">gender : categorical</text>
<text text-anchor="start" x="8" y="-46.3" font-family="Times,serif" font-size="14.00" fill="#000000">country : categorical</text>
<text text-anchor="start" x="8" y="-31.3" font-family="Times,serif" font-size="14.00" fill="#000000">age : numerical &#45; integer</text>
<polyline fill="none" stroke="#000000" points="0,-23.5 151,-23.5 "/>
<text text-anchor="start" x="8" y="-8.3" font-family="Times,serif" font-size="14.00" fill="#000000">Primary key: user_id</text>
</g>
</g>
</svg>
