<?xml version="1.0" encoding="UTF-8" standalone="no"?>
<!DOCTYPE svg PUBLIC "-//W3C//DTD SVG 1.1//EN"
 "http://www.w3.org/Graphics/SVG/1.1/DTD/svg11.dtd">
<!-- Generated by graphviz version 2.40.1 (20161225.0304)
 -->
<!-- Title: Metadata Pages: 1 -->
<svg width="371pt" height="500pt"
 viewBox="0.00 0.00 370.50 500.00" xmlns="http://www.w3.org/2000/svg" xmlns:xlink="http://www.w3.org/1999/xlink">
<g id="graph0" class="graph" transform="scale(1 1) rotate(0) translate(4 496)">
<title>Metadata</title>
<polygon fill="#ffffff" stroke="transparent" points="-4,4 -4,-496 366.5,-496 366.5,4 -4,4"/>
<!-- users -->
<g id="node1" class="node">
<title>users</title>
<path fill="#ffec8b" stroke="#000000" d="M38,-377.5C38,-377.5 165,-377.5 165,-377.5 171,-377.5 177,-383.5 177,-389.5 177,-389.5 177,-479.5 177,-479.5 177,-485.5 171,-491.5 165,-491.5 165,-491.5 38,-491.5 38,-491.5 32,-491.5 26,-485.5 26,-479.5 26,-479.5 26,-389.5 26,-389.5 26,-383.5 32,-377.5 38,-377.5"/>
<text text-anchor="middle" x="101.5" y="-476.3" font-family="Times,serif" font-size="14.00" fill="#000000">users</text>
<polyline fill="none" stroke="#000000" points="26,-468.5 177,-468.5 "/>
<text text-anchor="start" x="34" y="-453.3" font-family="Times,serif" font-size="14.00" fill="#000000">user_id : id &#45; integer</text>
<text text-anchor="start" x="34" y="-438.3" font-family="Times,serif" font-size="14.00" fill="#000000">gender : categorical</text>
<text text-anchor="start" x="34" y="-423.3" font-family="Times,serif" font-size="14.00" fill="#000000">country : categorical</text>
<text text-anchor="start" x="34" y="-408.3" font-family="Times,serif" font-size="14.00" fill="#000000">age : numerical &#45; integer</text>
<polyline fill="none" stroke="#000000" points="26,-400.5 177,-400.5 "/>
<text text-anchor="start" x="34" y="-385.3" font-family="Times,serif" font-size="14.00" fill="#000000">Primary key: user_id</text>
</g>
<!-- sessions -->
<g id="node2" class="node">
<title>sessions</title>
<path fill="#ffec8b" stroke="#000000" d="M28.5,-196.5C28.5,-196.5 174.5,-196.5 174.5,-196.5 180.5,-196.5 186.5,-202.5 186.5,-208.5 186.5,-208.5 186.5,-313.5 186.5,-313.5 186.5,-319.5 180.5,-325.5 174.5,-325.5 174.5,-325.5 28.5,-325.5 28.5,-325.5 22.5,-325.5 16.5,-319.5 16.5,-313.5 16.5,-313.5 16.5,-208.5 16.5,-208.5 16.5,-202.5 22.5,-196.5 28.5,-196.5"/>
<text text-anchor="middle" x="101.5" y="-310.3" font-family="Times,serif" font-size="14.00" fill="#000000">sessions</text>
<polyline fill="none" stroke="#000000" points="16.5,-302.5 186.5,-302.5 "/>
<text text-anchor="start" x="24.5" y="-287.3" font-family="Times,serif" font-size="14.00" fill="#000000">session_id : id &#45; integer</text>
<text text-anchor="start" x="24.5" y="-272.3" font-family="Times,serif" font-size="14.00" fill="#000000">user_id : id &#45; integer</text>
<text text-anchor="start" x="24.5" y="-257.3" font-family="Times,serif" font-size="14.00" fill="#000000">os : categorical</text>
<text text-anchor="start" x="24.5" y="-242.3" font-family="Times,serif" font-size="14.00" fill="#000000">device : categorical</text>
<polyline fill="none" stroke="#000000" points="16.5,-234.5 186.5,-234.5 "/>
<text text-anchor="start" x="24.5" y="-219.3" font-family="Times,serif" font-size="14.00" fill="#000000">Primary key: session_id</text>
<text text-anchor="start" x="24.5" y="-204.3" font-family="Times,serif" font-size="14.00" fill="#000000">Foreign key (users): user_id</text>
</g>
<!-- users&#45;&gt;sessions -->
<g id="edge1" class="edge">
<title>users&#45;&gt;sessions</title>
<path fill="none" stroke="#000000" d="M101.5,-377.2088C101.5,-363.9446 101.5,-349.6377 101.5,-335.7493"/>
<polygon fill="none" stroke="#000000" points="105,-325.7312 101.5001,-335.7312 98,-325.7313 105,-325.7312"/>
<text text-anchor="middle" x="197" y="-347.8" font-family="Times,serif" font-size="14.00" fill="#000000"> &#160;&#160;sessions.user_id &#45;&gt; users.user_id</text>
</g>
<!-- transactions -->
<g id="node3" class="node">
<title>transactions</title>
<path fill="#ffec8b" stroke="#000000" d="M12,-.5C12,-.5 191,-.5 191,-.5 197,-.5 203,-6.5 203,-12.5 203,-12.5 203,-132.5 203,-132.5 203,-138.5 197,-144.5 191,-144.5 191,-144.5 12,-144.5 12,-144.5 6,-144.5 0,-138.5 0,-132.5 0,-132.5 0,-12.5 0,-12.5 0,-6.5 6,-.5 12,-.5"/>
<text text-anchor="middle" x="101.5" y="-129.3" font-family="Times,serif" font-size="14.00" fill="#000000">transactions</text>
<polyline fill="none" stroke="#000000" points="0,-121.5 203,-121.5 "/>
<text text-anchor="start" x="8" y="-106.3" font-family="Times,serif" font-size="14.00" fill="#000000">timestamp : datetime</text>
<text text-anchor="start" x="8" y="-91.3" font-family="Times,serif" font-size="14.00" fill="#000000">session_id : id &#45; integer</text>
<text text-anchor="start" x="8" y="-76.3" font-family="Times,serif" font-size="14.00" fill="#000000">transaction_id : id &#45; integer</text>
<text text-anchor="start" x="8" y="-61.3" font-family="Times,serif" font-size="14.00" fill="#000000">approved : boolean</text>
<text text-anchor="start" x="8" y="-46.3" font-family="Times,serif" font-size="14.00" fill="#000000">amount : numerical &#45; float</text>
<polyline fill="none" stroke="#000000" points="0,-38.5 203,-38.5 "/>
<text text-anchor="start" x="8" y="-23.3" font-family="Times,serif" font-size="14.00" fill="#000000">Primary key: transaction_id</text>
<text text-anchor="start" x="8" y="-8.3" font-family="Times,serif" font-size="14.00" fill="#000000">Foreign key (sessions): session_id</text>
</g>
<!-- sessions&#45;&gt;transactions -->
<g id="edge2" class="edge">
<title>sessions&#45;&gt;transactions</title>
<path fill="none" stroke="#000000" d="M101.5,-196.3927C101.5,-183.0141 101.5,-168.7483 101.5,-154.8345"/>
<polygon fill="none" stroke="#000000" points="105,-144.7831 101.5001,-154.7831 98,-144.7831 105,-144.7831"/>
<text text-anchor="middle" x="232" y="-166.8" font-family="Times,serif" font-size="14.00" fill="#000000"> &#160;&#160;transactions.session_id &#45;&gt; sessions.session_id</text>
</g>
</g>
</svg>
