<?xml version="1.0" encoding="UTF-8" standalone="no"?>
<!DOCTYPE svg PUBLIC "-//W3C//DTD SVG 1.1//EN"
 "http://www.w3.org/Graphics/SVG/1.1/DTD/svg11.dtd">
<!-- Generated by graphviz version 2.40.1 (20161225.0304)
 -->
<!-- Title: Metadata Pages: 1 -->
<svg width="470pt" height="424pt"
 viewBox="0.00 0.00 469.50 424.00" xmlns="http://www.w3.org/2000/svg" xmlns:xlink="http://www.w3.org/1999/xlink">
<g id="graph0" class="graph" transform="scale(1 1) rotate(0) translate(4 420)">
<title>Metadata</title>
<polygon fill="#ffffff" stroke="transparent" points="-4,4 -4,-420 465.5,-420 465.5,4 -4,4"/>
<!-- stores -->
<g id="node1" class="node">
<title>stores</title>
<path fill="#ffec8b" stroke="#000000" d="M146,-301.5C146,-301.5 277,-301.5 277,-301.5 283,-301.5 289,-307.5 289,-313.5 289,-313.5 289,-403.5 289,-403.5 289,-409.5 283,-415.5 277,-415.5 277,-415.5 146,-415.5 146,-415.5 140,-415.5 134,-409.5 134,-403.5 134,-403.5 134,-313.5 134,-313.5 134,-307.5 140,-301.5 146,-301.5"/>
<text text-anchor="middle" x="211.5" y="-400.3" font-family="Times,serif" font-size="14.00" fill="#000000">stores</text>
<polyline fill="none" stroke="#000000" points="134,-392.5 289,-392.5 "/>
<text text-anchor="start" x="142" y="-377.3" font-family="Times,serif" font-size="14.00" fill="#000000">Type : categorical</text>
<text text-anchor="start" x="142" y="-362.3" font-family="Times,serif" font-size="14.00" fill="#000000">Size : numerical &#45; integer</text>
<text text-anchor="start" x="142" y="-347.3" font-family="Times,serif" font-size="14.00" fill="#000000">Store : id &#45; integer</text>
<polyline fill="none" stroke="#000000" points="134,-339.5 289,-339.5 "/>
<text text-anchor="start" x="142" y="-324.3" font-family="Times,serif" font-size="14.00" fill="#000000">Primary key: Store</text>
<text text-anchor="start" x="142" y="-309.3" font-family="Times,serif" font-size="14.00" fill="#000000">Data path: stores.csv</text>
</g>
<!-- features -->
<g id="node2" class="node">
<title>features</title>
<path fill="#ffec8b" stroke="#000000" d="M12,-.5C12,-.5 193,-.5 193,-.5 199,-.5 205,-6.5 205,-12.5 205,-12.5 205,-237.5 205,-237.5 205,-243.5 199,-249.5 193,-249.5 193,-249.5 12,-249.5 12,-249.5 6,-249.5 0,-243.5 0,-237.5 0,-237.5 0,-12.5 0,-12.5 0,-6.5 6,-.5 12,-.5"/>
<text text-anchor="middle" x="102.5" y="-234.3" font-family="Times,serif" font-size="14.00" fill="#000000">features</text>
<polyline fill="none" stroke="#000000" points="0,-226.5 205,-226.5 "/>
<text text-anchor="start" x="8" y="-211.3" font-family="Times,serif" font-size="14.00" fill="#000000">Date : datetime</text>
<text text-anchor="start" x="8" y="-196.3" font-family="Times,serif" font-size="14.00" fill="#000000">MarkDown1 : numerical &#45; float</text>
<text text-anchor="start" x="8" y="-181.3" font-family="Times,serif" font-size="14.00" fill="#000000">Store : id &#45; integer</text>
<text text-anchor="start" x="8" y="-166.3" font-family="Times,serif" font-size="14.00" fill="#000000">IsHoliday : boolean</text>
<text text-anchor="start" x="8" y="-151.3" font-family="Times,serif" font-size="14.00" fill="#000000">MarkDown4 : numerical &#45; float</text>
<text text-anchor="start" x="8" y="-136.3" font-family="Times,serif" font-size="14.00" fill="#000000">MarkDown3 : numerical &#45; float</text>
<text text-anchor="start" x="8" y="-121.3" font-family="Times,serif" font-size="14.00" fill="#000000">Fuel_Price : numerical &#45; float</text>
<text text-anchor="start" x="8" y="-106.3" font-family="Times,serif" font-size="14.00" fill="#000000">Unemployment : numerical &#45; float</text>
<text text-anchor="start" x="8" y="-91.3" font-family="Times,serif" font-size="14.00" fill="#000000">Temperature : numerical &#45; float</text>
<text text-anchor="start" x="8" y="-76.3" font-family="Times,serif" font-size="14.00" fill="#000000">MarkDown5 : numerical &#45; float</text>
<text text-anchor="start" x="8" y="-61.3" font-family="Times,serif" font-size="14.00" fill="#000000">MarkDown2 : numerical &#45; float</text>
<text text-anchor="start" x="8" y="-46.3" font-family="Times,serif" font-size="14.00" fill="#000000">CPI : numerical &#45; float</text>
<polyline fill="none" stroke="#000000" points="0,-38.5 205,-38.5 "/>
<text text-anchor="start" x="8" y="-23.3" font-family="Times,serif" font-size="14.00" fill="#000000">Foreign key (stores): Store</text>
<text text-anchor="start" x="8" y="-8.3" font-family="Times,serif" font-size="14.00" fill="#000000">Data path: features.csv</text>
</g>
<!-- stores&#45;&gt;features -->
<g id="edge1" class="edge">
<title>stores&#45;&gt;features</title>
<path fill="none" stroke="#000000" d="M140.7572,-301.1781C136.1229,-295.4114 131.9421,-289.3324 128.5,-283 124.4445,-275.5391 120.9867,-267.6091 118.0416,-259.4282"/>
<polygon fill="none" stroke="#000000" points="118.136,-248.6181 117.9697,-259.2116 111.4935,-250.8265 118.136,-248.6181"/>
<text text-anchor="middle" x="214" y="-271.8" font-family="Times,serif" font-size="14.00" fill="#000000"> &#160;&#160;features.Store &#45;&gt; stores.Store</text>
</g>
<!-- depts -->
<g id="node3" class="node">
<title>depts</title>
<path fill="#ffec8b" stroke="#000000" d="M235,-53C235,-53 408,-53 408,-53 414,-53 420,-59 420,-65 420,-65 420,-185 420,-185 420,-191 414,-197 408,-197 408,-197 235,-197 235,-197 229,-197 223,-191 223,-185 223,-185 223,-65 223,-65 223,-59 229,-53 235,-53"/>
<text text-anchor="middle" x="321.5" y="-181.8" font-family="Times,serif" font-size="14.00" fill="#000000">depts</text>
<polyline fill="none" stroke="#000000" points="223,-174 420,-174 "/>
<text text-anchor="start" x="231" y="-158.8" font-family="Times,serif" font-size="14.00" fill="#000000">Date : datetime</text>
<text text-anchor="start" x="231" y="-143.8" font-family="Times,serif" font-size="14.00" fill="#000000">Weekly_Sales : numerical &#45; float</text>
<text text-anchor="start" x="231" y="-128.8" font-family="Times,serif" font-size="14.00" fill="#000000">Store : id &#45; integer</text>
<text text-anchor="start" x="231" y="-113.8" font-family="Times,serif" font-size="14.00" fill="#000000">Dept : numerical &#45; integer</text>
<text text-anchor="start" x="231" y="-98.8" font-family="Times,serif" font-size="14.00" fill="#000000">IsHoliday : boolean</text>
<polyline fill="none" stroke="#000000" points="223,-91 420,-91 "/>
<text text-anchor="start" x="231" y="-75.8" font-family="Times,serif" font-size="14.00" fill="#000000">Foreign key (stores): Store</text>
<text text-anchor="start" x="231" y="-60.8" font-family="Times,serif" font-size="14.00" fill="#000000">Data path: train.csv</text>
</g>
<!-- stores&#45;&gt;depts -->
<g id="edge2" class="edge">
<title>stores&#45;&gt;depts</title>
<path fill="none" stroke="#000000" d="M287.0707,-301.1494C291.788,-295.4236 296.0255,-289.3596 299.5,-283 311.9843,-260.1491 318.266,-232.7713 321.2171,-207.274"/>
<polygon fill="none" stroke="#000000" points="325.7055,-197.5835 321.2259,-207.1848 318.7404,-196.8856 325.7055,-197.5835"/>
<text text-anchor="middle" x="383" y="-271.8" font-family="Times,serif" font-size="14.00" fill="#000000"> &#160;&#160;depts.Store &#45;&gt; stores.Store</text>
</g>
</g>
</svg>
